<svg aria-hidden="true" style="position: absolute; width: 0; height: 0; overflow: hidden;" version="1.1" xmlns="http://www.w3.org/2000/svg" xmlns:xlink="http://www.w3.org/1999/xlink">
<defs>
<symbol id="icon-facebook" viewBox="0 0 33 32">
<path fill="#335bf5" style="fill: var(--color1, #335bf5)" d="M31.387 0h-29.44c-0 0-0.001 0-0.001 0-0.706 0-1.279 0.572-1.279 1.279 0 0 0 0.001 0 0.001v-0 29.44c0 0.708 0.572 1.28 1.28 1.28h29.44c0.708 0 1.28-0.572 1.28-1.28v-29.44c0-0 0-0.001 0-0.001 0-0.706-0.572-1.279-1.279-1.279-0 0-0.001 0-0.001 0h0zM27.691 9.34h-2.556c-2.004 0-2.392 0.952-2.392 2.352v3.084h4.784l-0.624 4.828h-4.16v12.396h-4.988v-12.392h-4.172v-4.832h4.172v-3.56c0-4.132 2.524-6.384 6.212-6.384 1.768 0 3.284 0.132 3.728 0.192v4.316h-0.004z"></path>
</symbol>
<symbol id="icon-hammer" viewBox="0 0 32 32">
<path fill="#fff" style="fill: var(--color2, #fff)" d="M31.422 26.257c-0.214-0.331-0.464-0.615-0.748-0.86l-0.005-0.004-2.921-2.548c-0.063-0.093-0.146-0.166-0.245-0.215l-0.004-0.002-9.941-8.671c0.321-0.334 0.519-0.788 0.519-1.289 0-0.002 0-0.003 0-0.005v0c0-0.002 0-0.004 0-0.006 0-0.74-0.432-1.38-1.057-1.68l-0.011-0.005 0.757-0.757c0.194 0.054 0.418 0.086 0.648 0.086 0.689 0 1.313-0.28 1.764-0.732l0-0c0.473-0.471 0.734-1.099 0.734-1.767 0-0.667-0.261-1.296-0.734-1.767l-5.302-5.303c-0.45-0.452-1.073-0.732-1.761-0.732-0.003 0-0.005 0-0.008 0h0c-1.38 0.002-2.497 1.121-2.497 2.501 0 0.229 0.031 0.451 0.089 0.662l-0.004-0.018-7.545 7.545c-0.195-0.055-0.42-0.087-0.652-0.087-0.689 0-1.313 0.281-1.763 0.734l-0 0c-0.452 0.453-0.731 1.078-0.731 1.768s0.279 1.315 0.731 1.768l5.303 5.303c0.487 0.487 1.127 0.731 1.767 0.731 1.38-0.002 2.498-1.121 2.498-2.501 0-0.229-0.031-0.451-0.088-0.661l0.004 0.018 0.754-0.754c0.31 0.635 0.951 1.064 1.692 1.064 0.502 0 0.957-0.197 1.294-0.517l-0.001 0.001 8.708 10.002c0.025 0.038 0.052 0.074 0.084 0.107l0.036 0.031 2.594 2.981c0.686 0.811 1.705 1.323 2.843 1.323 0.187 0 0.37-0.014 0.549-0.040l-0.020 0.002c1.21-0.176 2.22-0.902 2.78-1.913l0.010-0.019c0.288-0.514 0.458-1.129 0.458-1.783 0-0.739-0.217-1.427-0.59-2.005l0.009 0.015zM12.223 1.617c0.236-0.238 0.55-0.367 0.884-0.367 0.335 0 0.649 0.129 0.885 0.366l5.302 5.303c0.236 0.236 0.367 0.55 0.367 0.884-0.001 0.69-0.561 1.248-1.25 1.248-0.344 0-0.656-0.139-0.883-0.365l-5.305-5.302c-0.226-0.226-0.366-0.539-0.366-0.884s0.14-0.657 0.366-0.884v0zM8.689 19.292c-0.226 0.226-0.539 0.365-0.884 0.365s-0.657-0.14-0.884-0.365l-5.303-5.305c-0.224-0.226-0.363-0.537-0.363-0.881 0-0.689 0.557-1.249 1.246-1.252h0c0.334 0 0.647 0.13 0.884 0.366l5.305 5.305c0.486 0.487 0.486 1.28 0 1.767zM11.321 14.894l-1.748 1.748-5.303-5.305 7.071-7.071 5.305 5.305-5.326 5.323zM13.552 16.197l-0.443 0.443c-0.113 0.115-0.269 0.186-0.442 0.186s-0.33-0.071-0.442-0.185l-0-0c-0.114-0.113-0.184-0.269-0.184-0.441 0-0.169 0.067-0.322 0.177-0.434l3.551-3.551c0.112-0.107 0.264-0.172 0.432-0.172 0.345 0 0.624 0.278 0.628 0.621v0c0 0.001 0 0.001 0 0.002 0 0.172-0.070 0.328-0.183 0.44l-0.437 0.437-0.009 0.010-2.646 2.645zM14.847 16.671l1.826-1.826 7.734 6.745-2.822 2.823-6.738-7.742zM22.407 25.358l2.944-2.944 0.944 0.823-3.065 3.065-0.823-0.944zM30.453 29.419c-0.381 0.693-1.058 1.184-1.857 1.303l-0.014 0.002c-0.106 0.016-0.228 0.025-0.352 0.025-0.763 0-1.445-0.344-1.901-0.885l-0.003-0.004-2.273-2.613 3.188-3.188 2.609 2.277c0.553 0.456 0.902 1.141 0.902 1.908 0 0.431-0.11 0.836-0.304 1.188l0.006-0.013z"></path>
</symbol>
<symbol id="icon-instagram" viewBox="0 0 33 32">
<path fill="#e61f5a" style="fill: var(--color3, #e61f5a)" d="M16.669 7.796c-0.004 0-0.008 0-0.012 0-4.524 0-8.192 3.668-8.192 8.192 0 0.004 0 0.008 0 0.013v-0.001c0 0.004 0 0.008 0 0.012 0 4.524 3.668 8.192 8.192 8.192 0.004 0 0.008 0 0.013 0h-0.001c0.004 0 0.008 0 0.012 0 4.524 0 8.192-3.668 8.192-8.192 0-0.004 0-0.008 0-0.013v0.001c0-0.004 0-0.008 0-0.012 0-4.524-3.668-8.192-8.192-8.192-0.004 0-0.008 0-0.013 0h0.001zM16.669 21.332c-2.943-0.005-5.327-2.389-5.333-5.331v-0.001c0.006-2.943 2.39-5.327 5.333-5.332h0c2.943 0.006 5.327 2.39 5.332 5.333v0c-0.007 2.942-2.391 5.325-5.333 5.331h-0zM25.209 5.548c-1.060 0-1.916 0.856-1.916 1.916s0.856 1.916 1.916 1.916c0.003 0 0.006 0 0.009 0 1.055 0 1.911-0.855 1.911-1.911 0-0.267-0.055-0.521-0.153-0.751l0.005 0.012c-0.294-0.7-0.975-1.183-1.767-1.183-0.001 0-0.002 0-0.003 0h0zM32.661 16.001c0-2.209 0.020-4.397-0.104-6.6-0.124-2.56-0.708-4.833-2.58-6.705-1.876-1.876-4.144-2.456-6.704-2.58-2.208-0.124-4.396-0.103-6.6-0.103-2.208 0-4.396-0.020-6.6 0.104-2.56 0.123-4.833 0.707-6.704 2.579-1.876 1.877-2.456 4.144-2.58 6.704-0.124 2.208-0.104 4.396-0.104 6.6s-0.020 4.396 0.104 6.6c0.124 2.56 0.707 4.832 2.58 6.704 1.876 1.876 4.144 2.456 6.704 2.58 2.208 0.124 4.396 0.104 6.6 0.104 2.208 0 4.396 0.020 6.6-0.104 2.56-0.124 4.832-0.707 6.704-2.58 1.876-1.876 2.456-4.144 2.58-6.704 0.128-2.204 0.104-4.392 0.104-6.6zM29.141 25.432c-0.279 0.718-0.69 1.329-1.207 1.831l-0.001 0.001c-0.504 0.517-1.115 0.928-1.797 1.196l-0.035 0.012c-2.104 0.836-7.1 0.648-9.432 0.648-2.333 0-7.333 0.188-9.436-0.644-0.718-0.279-1.329-0.69-1.831-1.207l-0.001-0.001c-0.517-0.504-0.928-1.115-1.196-1.797l-0.012-0.035c-0.832-2.107-0.644-7.104-0.644-9.436s-0.188-7.332 0.644-9.436c0.292-0.728 0.644-1.272 1.208-1.832s1.104-0.916 1.832-1.208c2.104-0.832 7.104-0.644 9.436-0.644s7.332-0.187 9.436 0.644c0.728 0.293 1.272 0.644 1.832 1.208 0.564 0.564 0.916 1.104 1.208 1.832 0.832 2.104 0.644 7.104 0.644 9.436 0 2.333 0.187 7.328-0.648 9.432z"></path>
</symbol>
<symbol id="icon-people" viewBox="0 0 33 32">
<path d="M18.919 8.29c-0.719 0.501-1.61 0.8-2.572 0.8-2.504 0-4.533-2.030-4.533-4.533 0-1.588 0.817-2.986 2.053-3.795l0.017-0.011c0.707-0.478 1.58-0.764 2.518-0.764 2.504 0 4.533 2.030 4.533 4.533 0 1.565-0.793 2.945-1.999 3.759l-0.016 0.010h-0.002zM17.661 2.637c-0.366-0.265-0.824-0.424-1.319-0.424-1.252 0-2.267 1.015-2.267 2.267 0 0.807 0.421 1.515 1.056 1.917l0.009 0.005c0.336 0.208 0.744 0.332 1.181 0.332 1.252 0 2.267-1.015 2.267-2.267 0-0.748-0.362-1.411-0.921-1.824l-0.006-0.004v-0.002zM23.578 2.705c0.53-0.361 1.185-0.576 1.89-0.576 0.94 0 1.791 0.383 2.404 1.002l0 0c0.615 0.62 0.996 1.473 0.996 2.416 0 1.413-0.855 2.627-2.076 3.152l-0.022 0.009c-0.385 0.166-0.834 0.262-1.305 0.262-0.939 0-1.789-0.383-2.401-1.001l-0-0c-0.616-0.62-0.997-1.474-0.997-2.417 0-1.179 0.596-2.22 1.503-2.836l0.012-0.008-0.002-0.002zM24.666 6.353c0.205 0.204 0.487 0.33 0.799 0.33 0.625 0 1.132-0.507 1.132-1.132 0-0.313-0.127-0.597-0.333-0.802l-0-0c-0.204-0.205-0.484-0.333-0.795-0.339l-0.001-0c-0.001 0-0.002 0-0.003 0-0.624 0-1.131 0.506-1.131 1.131 0 0.003 0 0.006 0 0.009v-0c0.001 0.302 0.119 0.592 0.331 0.807v-0.002zM5.498 26.026h4.103v2.277h-4.102c-0.748-0.007-1.422-0.315-1.909-0.809l-0-0c-0.488-0.495-0.789-1.175-0.789-1.925 0-0 0-0.001 0-0.001v0-4.102c-0.64-0.022-1.21-0.308-1.607-0.751l-0.002-0.002c-0.407-0.412-0.658-0.978-0.658-1.603 0-0.022 0-0.044 0.001-0.065l-0 0.003v-4.946c0.007-1.112 0.456-2.118 1.179-2.852l-0 0.001c0.717-0.725 1.71-1.177 2.808-1.187h4.173c-0.542 0.642-0.968 1.402-1.234 2.234l-0.013 0.047h-2.923c-0.479 0.014-0.909 0.212-1.225 0.526l0-0c-0.32 0.33-0.499 0.771-0.498 1.231v5.059h2.266v6.405c-0.001 0.012-0.002 0.025-0.002 0.039 0 0.117 0.043 0.223 0.115 0.304l-0-0c0.087 0.068 0.197 0.11 0.317 0.113l0.001 0v0.005zM22.045 11.251c-0.723-0.73-1.725-1.183-2.833-1.186h-5.622c-1.1 0.009-2.093 0.461-2.81 1.186l-0 0c-0.723 0.733-1.172 1.739-1.18 2.849v7.205c-0.003 0.619 0.233 1.215 0.657 1.664 0.4 0.445 0.969 0.729 1.606 0.752l0.004 0v5.266c-0 0.005-0 0.010-0 0.016 0 0.75 0.303 1.43 0.794 1.923l-0-0c0.393 0.368 0.897 0.622 1.457 0.705l0.015 0.002h4.533c1.287-0.173 2.268-1.264 2.268-2.585 0-0.021-0-0.042-0.001-0.064l0 0.003v-5.268c0.64-0.022 1.21-0.307 1.608-0.75l0.002-0.002c0.407-0.412 0.658-0.978 0.658-1.603 0-0.021-0-0.043-0.001-0.064l0 0.003v-7.203c0-0.002 0-0.004 0-0.005 0-1.107-0.441-2.111-1.157-2.847l0.001 0.001v0.002zM20.934 21.417h-2.268v7.571c-0.003 0.124-0.054 0.236-0.136 0.317l-0 0c-0.071 0.084-0.177 0.137-0.295 0.137-0.008 0-0.016-0-0.023-0.001l0.001 0h-3.649c-0.246-0.012-0.442-0.208-0.453-0.452l-0-0.001v-7.571h-2.244v-7.317c0-0.459 0.179-0.901 0.498-1.23 0.315-0.313 0.745-0.511 1.222-0.526l0.003-0h5.621c0.718 0.013 1.33 0.453 1.594 1.076l0.004 0.012c0.085 0.212 0.128 0.439 0.125 0.669v7.317zM27.303 28.301h-4.102v-2.278h4.080c0.12-0.004 0.23-0.046 0.318-0.114l-0.001 0.001c0.085-0.082 0.137-0.197 0.137-0.324 0-0.007-0-0.014-0-0.021l0 0.001v-6.405h2.267v-5.059c0-0.46-0.178-0.901-0.499-1.231-0.315-0.313-0.745-0.512-1.221-0.526l-0.003-0h-2.924c-0.279-0.879-0.705-1.639-1.256-2.29l0.008 0.010h4.171c1.057 0.011 2.067 0.436 2.812 1.186 0.723 0.734 1.171 1.739 1.179 2.85v4.948c0 0.619-0.235 1.212-0.655 1.661-0.407 0.436-0.973 0.718-1.605 0.755l-0.006 0v4.102c0 0 0 0.001 0 0.002 0 0.75-0.301 1.43-0.79 1.925l0-0c-0.487 0.494-1.161 0.802-1.907 0.81h-0.001zM7.334 2.129c-0.001 0-0.002 0-0.004 0-1.411 0-2.62 0.863-3.129 2.090l-0.008 0.022c-0.163 0.386-0.257 0.834-0.257 1.305 0 0.944 0.38 1.799 0.996 2.42l-0-0c0.615 0.62 1.468 1.004 2.41 1.004 1.874 0 3.393-1.519 3.393-3.393 0-0.010-0-0.020-0-0.030v0.002c0-0 0-0 0-0 0-1.413-0.855-2.626-2.076-3.15l-0.022-0.009c-0.384-0.165-0.832-0.261-1.301-0.261h-0zM7.334 6.689c-0.001 0-0.002 0-0.003 0-0.624 0-1.131-0.506-1.131-1.131 0-0.003 0-0.007 0-0.010v0c0.002-0.627 0.508-1.134 1.133-1.139h0c0.623 0.012 1.125 0.516 1.133 1.138v0.001c-0.001 0.627-0.506 1.136-1.132 1.141h-0z"></path>
</symbol>
<symbol id="icon-scales" viewBox="0 0 39 32">
<path  d="M20.731 28.524h-3.239c-0 0-0.001 0-0.002 0-0.149 0-0.285-0.060-0.384-0.156l0 0c-0.098-0.096-0.159-0.23-0.159-0.378 0-0 0-0.001 0-0.001v0-25.829c0-0.565 0.228-1.105 0.634-1.504s0.956-0.623 1.53-0.623c0.574 0 1.124 0.224 1.53 0.623s0.634 0.939 0.634 1.504v25.83c-0 0.148-0.062 0.282-0.16 0.378l-0 0c-0.099 0.097-0.234 0.156-0.384 0.156-0 0-0 0-0 0h0zM18.036 27.454h2.15v-25.292c0-0 0-0 0-0.001 0-0.293-0.12-0.557-0.314-0.747l-0-0c-0.196-0.193-0.464-0.312-0.761-0.312s-0.565 0.119-0.761 0.312l0-0c-0.194 0.19-0.315 0.455-0.315 0.748v25.295zM5.998 7.204h-1.868c-0.46-0.008-0.874-0.196-1.177-0.497l0 0c-0.299-0.298-0.484-0.709-0.485-1.164v-0c0-0.436 0.175-0.854 0.485-1.166 0.311-0.31 0.734-0.489 1.177-0.497h1.602c0.145 0 0.283 0.057 0.385 0.158 0.098 0.096 0.159 0.23 0.159 0.378s-0.061 0.282-0.159 0.378l-0 0c-0.099 0.097-0.234 0.156-0.384 0.156-0.001 0-0.001 0-0.002 0h-1.602c-0.163 0.005-0.308 0.072-0.415 0.18l-0 0c-0.105 0.106-0.169 0.252-0.169 0.412s0.065 0.306 0.169 0.412l-0-0c0.11 0.111 0.258 0.176 0.415 0.181h1.868c0.144 0 0.283 0.057 0.384 0.156 0.098 0.096 0.159 0.23 0.159 0.378s-0.061 0.282-0.159 0.378l-0 0c-0.099 0.097-0.234 0.156-0.384 0.156-0 0-0 0-0 0h0z"></path>
<path d="M17.492 7.202h-8.203c-0 0-0.001 0-0.002 0-0.149 0-0.285-0.060-0.384-0.156l0 0c-0.098-0.096-0.159-0.23-0.159-0.378s0.061-0.282 0.159-0.378l0-0c0.099-0.097 0.234-0.156 0.384-0.156 0.001 0 0.001 0 0.002 0h7.659v-1.185h-7.394c-0 0-0.001 0-0.002 0-0.149 0-0.285-0.060-0.384-0.156l0 0c-0.098-0.096-0.159-0.23-0.159-0.378s0.061-0.282 0.159-0.378l0-0c0.099-0.097 0.235-0.158 0.385-0.158 0 0 0 0 0 0h7.938c0.144 0 0.283 0.057 0.385 0.158 0.098 0.096 0.16 0.23 0.16 0.378v2.254c-0 0.149-0.061 0.283-0.16 0.379l-0 0c-0.099 0.097-0.234 0.156-0.384 0.156-0.001 0-0.001 0-0.002 0h0zM28.815 7.202h-8.084c-0 0-0.001 0-0.002 0-0.149 0-0.285-0.060-0.384-0.156l0 0c-0.099-0.096-0.16-0.231-0.16-0.379v0-2.254c0-0.148 0.062-0.282 0.16-0.378l0-0c0.099-0.097 0.235-0.158 0.385-0.158 0 0 0 0 0 0h7.819c0.145 0 0.283 0.057 0.385 0.158 0.098 0.096 0.159 0.23 0.159 0.378s-0.061 0.282-0.159 0.378l-0 0c-0.099 0.097-0.234 0.156-0.384 0.156-0.001 0-0.001 0-0.002 0h-7.275v1.185h7.54c0.15 0 0.286 0.060 0.385 0.156l-0-0c0.098 0.096 0.159 0.23 0.159 0.378s-0.061 0.282-0.159 0.378l-0 0c-0.099 0.097-0.234 0.156-0.384 0.156-0.001 0-0.001 0-0.002 0h0zM34.087 7.202h-1.862c-0 0-0.001 0-0.002 0-0.149 0-0.285-0.060-0.384-0.156l0 0c-0.098-0.096-0.159-0.23-0.159-0.378s0.061-0.282 0.159-0.378l0-0c0.099-0.097 0.234-0.156 0.384-0.156 0.001 0 0.001 0 0.002 0h1.862c0.163-0.005 0.308-0.072 0.415-0.18l0-0c0.105-0.106 0.169-0.252 0.169-0.412s-0.065-0.306-0.169-0.412l0 0c-0.106-0.108-0.252-0.176-0.414-0.181l-0.001-0h-1.594c-0 0-0.001 0-0.002 0-0.149 0-0.285-0.060-0.384-0.156l0 0c-0.098-0.096-0.159-0.23-0.159-0.378s0.061-0.282 0.159-0.378l0-0c0.099-0.097 0.235-0.158 0.385-0.158 0 0 0 0 0 0h1.594c0.443 0.009 0.866 0.187 1.177 0.497 0.298 0.298 0.482 0.71 0.482 1.165s-0.184 0.867-0.482 1.165v0c-0.302 0.301-0.717 0.49-1.175 0.497l-0.001 0zM26.002 31.966h-13.783c-0.173-0.001-0.326-0.080-0.428-0.205l-0.001-0.001c-0.071-0.089-0.114-0.204-0.114-0.329 0-0.046 0.006-0.090 0.017-0.133l-0.001 0.004c0.24-1.096 0.825-2.028 1.633-2.701l0.008-0.006c0.808-0.674 1.846-1.098 2.981-1.142l0.009-0h5.575c1.098 0.042 2.151 0.443 2.991 1.141 0.816 0.68 1.401 1.613 1.635 2.677l0.006 0.032c0.010 0.039 0.016 0.084 0.016 0.13 0 0.124-0.043 0.239-0.116 0.329l0.001-0.001c-0.101 0.126-0.254 0.207-0.427 0.207-0.001 0-0.002 0-0.003 0h0zM12.972 30.896h12.278c-0.272-0.693-0.725-1.265-1.301-1.675l-0.011-0.008c-0.569-0.406-1.272-0.66-2.032-0.689l-0.007-0h-5.575c-0.768 0.029-1.471 0.283-2.052 0.697l0.012-0.008c-0.587 0.418-1.039 0.99-1.302 1.658l-0.009 0.025z"></path>
<path  d="M27.477 31.967h-16.732c-0 0-0 0-0 0-0.15 0-0.286-0.060-0.385-0.158l0 0c-0.098-0.096-0.159-0.23-0.159-0.378s0.061-0.282 0.159-0.378l0-0c0.099-0.097 0.235-0.158 0.385-0.158 0 0 0 0 0 0h16.731c0.144 0 0.283 0.057 0.384 0.158 0.098 0.096 0.159 0.23 0.159 0.378s-0.061 0.282-0.159 0.378l-0 0c-0.099 0.097-0.235 0.158-0.385 0.158-0 0-0 0-0 0h0zM37.612 20.612h-14.062c-0.19-0-0.358-0.097-0.457-0.244l-0.001-0.002c-0.054-0.081-0.085-0.181-0.085-0.288 0-0.080 0.018-0.156 0.050-0.224l-0.001 0.003 5.974-12.929c0.061-0.13 0.168-0.23 0.3-0.279l0.004-0.001c0.057-0.022 0.123-0.034 0.191-0.034 0.156 0 0.298 0.065 0.398 0.169l0 0c0.090 0.095 0.145 0.224 0.145 0.366 0 0.080-0.018 0.157-0.050 0.225l0.001-0.003-5.625 12.172h12.369l-5.621-12.172c-0.031-0.065-0.049-0.141-0.049-0.222 0-0.142 0.056-0.271 0.148-0.366l-0 0c0.096-0.101 0.23-0.165 0.378-0.169h0.001c0.005-0 0.010-0 0.015-0 0.219 0 0.408 0.127 0.498 0.311l0.001 0.003 5.969 12.928c0.031 0.065 0.049 0.142 0.049 0.222 0 0.202-0.114 0.377-0.28 0.466l-0.003 0.001c-0.075 0.041-0.164 0.066-0.26 0.066h-0z"></path>
<path  d="M30.638 27.434h-0.114c-4.357 0-7.52-3.094-7.52-7.356 0-0.148 0.062-0.282 0.16-0.378l0-0c0.099-0.097 0.234-0.157 0.384-0.158h14.065c0.144 0 0.283 0.057 0.385 0.158 0.098 0.096 0.159 0.23 0.159 0.378v0c0 4.265-3.163 7.355-7.52 7.355zM24.112 20.612c0.242 3.414 2.81 5.751 6.412 5.751h0.113c3.601 0 6.17-2.338 6.412-5.751h-12.939zM30.581 7.964c-0.001 0-0.002 0-0.002 0-0.552 0-1.066-0.165-1.494-0.449l0.010 0.006c-0.435-0.288-0.774-0.689-0.978-1.162l-0.007-0.017c-0.129-0.297-0.204-0.643-0.204-1.006 0-0.181 0.019-0.358 0.054-0.529l-0.003 0.017c0.102-0.511 0.357-0.978 0.731-1.346 0.489-0.476 1.158-0.769 1.895-0.769 0.368 0 0.719 0.073 1.039 0.206l-0.018-0.007c0.489 0.199 0.907 0.535 1.201 0.969 0.281 0.409 0.449 0.915 0.449 1.46 0 0.728-0.3 1.386-0.782 1.858l-0.001 0c-0.502 0.492-1.182 0.77-1.89 0.77zM30.581 3.777c-0 0-0.001 0-0.001 0-0.328 0-0.633 0.098-0.887 0.266l0.006-0.004c-0.261 0.172-0.464 0.415-0.585 0.7-0.077 0.176-0.121 0.382-0.121 0.598 0 0.432 0.178 0.822 0.465 1.1l0 0c0.29 0.282 0.687 0.456 1.124 0.456 0.218 0 0.426-0.043 0.616-0.122l-0.011 0.004c0.289-0.117 0.538-0.318 0.711-0.574 0.167-0.243 0.267-0.543 0.267-0.867 0-0.432-0.178-0.822-0.464-1.102l-0-0c-0.289-0.282-0.684-0.457-1.12-0.457-0 0-0.001 0-0.001 0h0zM14.671 20.612h-14.060c-0.19-0-0.358-0.097-0.457-0.243l-0.001-0.002c-0.054-0.081-0.086-0.181-0.086-0.289 0-0.081 0.018-0.157 0.050-0.225l-0.001 0.003 5.974-12.927c0.092-0.186 0.28-0.313 0.499-0.313 0.081 0 0.157 0.017 0.226 0.048l-0.003-0.001c0.13 0.058 0.234 0.166 0.283 0.299 0.022 0.056 0.035 0.121 0.035 0.19 0 0.079-0.018 0.155-0.049 0.222l0.001-0.003-5.626 12.172h12.369l-5.62-12.172c-0.034-0.068-0.054-0.148-0.054-0.232 0-0.216 0.13-0.402 0.316-0.484l0.003-0.001c0.066-0.030 0.142-0.047 0.223-0.047 0.222 0 0.413 0.131 0.501 0.319l0.001 0.003 5.969 12.929c0.031 0.065 0.049 0.141 0.049 0.221 0 0.202-0.114 0.378-0.281 0.467l-0.003 0.001c-0.075 0.041-0.165 0.065-0.26 0.065-0 0-0.001 0-0.001 0h0z"></path>
<path  d="M7.698 27.434h-0.113c-4.357 0-7.52-3.092-7.52-7.356 0-0.148 0.062-0.282 0.16-0.378l0-0c0.099-0.097 0.235-0.158 0.385-0.158 0 0 0 0 0 0h14.063c0.145 0 0.283 0.057 0.385 0.158 0.098 0.096 0.16 0.23 0.16 0.378v0c0 4.265-3.163 7.355-7.52 7.355zM1.173 20.61c0.242 3.414 2.811 5.751 6.412 5.751h0.113c3.601 0 6.17-2.338 6.412-5.751h-12.938zM7.643 7.964c-0.001 0-0.003 0-0.005 0-0.552 0-1.066-0.165-1.494-0.449l0.010 0.006c-0.435-0.288-0.774-0.689-0.978-1.162l-0.007-0.017c-0.129-0.297-0.204-0.643-0.204-1.007 0-0.182 0.019-0.359 0.054-0.53l-0.003 0.017c0.103-0.51 0.358-0.978 0.732-1.345 0.489-0.476 1.158-0.769 1.895-0.769 0.368 0 0.719 0.073 1.039 0.206l-0.018-0.007c0.489 0.199 0.906 0.537 1.2 0.969 0.281 0.409 0.449 0.915 0.449 1.46 0 0.728-0.3 1.386-0.782 1.858l-0.001 0c-0.502 0.492-1.182 0.77-1.89 0.77zM7.643 3.777c-0.314 0-0.62 0.091-0.881 0.262-0.261 0.172-0.465 0.415-0.585 0.7-0.077 0.176-0.121 0.382-0.121 0.597 0 0.432 0.178 0.822 0.465 1.101l0 0c0.29 0.282 0.687 0.456 1.124 0.456 0.218 0 0.426-0.043 0.616-0.122l-0.011 0.004c0.294-0.122 0.536-0.319 0.708-0.568l0.003-0.005c0.167-0.243 0.267-0.543 0.267-0.867 0-0.432-0.178-0.822-0.464-1.102l-0-0c-0.289-0.282-0.684-0.457-1.12-0.457-0.001 0-0.002 0-0.002 0h0z"></path>
</symbol>
<symbol id="icon-speedlim" viewBox="0 0 41 32">
<path  d="M37.311 9.065l-2.459 3.7c1.070 2.088 1.697 4.556 1.697 7.17 0 2.941-0.794 5.697-2.178 8.065l0.041-0.076h-27.719c-1.344-2.292-2.137-5.048-2.137-7.989 0-8.837 7.163-16 16-16 2.609 0 5.071 0.624 7.247 1.731l-0.091-0.042 3.701-2.462c-3.053-1.984-6.787-3.164-10.796-3.164-11.046 0-20 8.954-20 20 0 3.651 0.979 7.074 2.688 10.021l-0.051-0.096c0.7 1.197 1.977 1.991 3.439 2h27.701c0.005 0 0.010 0 0.015 0 1.473 0 2.76-0.796 3.454-1.981l0.010-0.019c1.684-2.869 2.679-6.318 2.679-10 0-4.045-1.201-7.809-3.265-10.956l0.047 0.076-0.021 0.021zM17.732 22.745c0.724 0.725 1.724 1.173 2.83 1.173s2.106-0.448 2.829-1.173l0-0 11.321-16.981-16.98 11.321c-0.725 0.724-1.173 1.725-1.173 2.83s0.448 2.106 1.173 2.83l0 0z"></path>
</symbol>
<symbol id="icon-star" viewBox="0 0 30 32">
<path fill="#f3cd03" style="fill: var(--color5, #f3cd03)" d="M29.808 11.859c-0.19-0.547-0.679-0.942-1.267-0.992l-0.005-0-8.368-0.664-3.619-8.016c-0.235-0.515-0.745-0.867-1.338-0.867s-1.103 0.352-1.334 0.857l-0.004 0.009-3.618 8.016-8.368 0.664c-0.759 0.062-1.352 0.693-1.352 1.463 0 0.413 0.17 0.786 0.445 1.052l0 0 6.182 6.027-2.187 9.469c-0.024 0.1-0.038 0.215-0.038 0.334 0 0.81 0.657 1.467 1.467 1.467 0.305 0 0.588-0.093 0.823-0.252l-0.005 0.003 7.99-5.328 7.99 5.328c0.228 0.153 0.509 0.244 0.812 0.244 0.812 0 1.47-0.658 1.47-1.47 0-0.142-0.020-0.279-0.057-0.408l0.003 0.010-2.685-9.392 6.656-5.992c0.299-0.27 0.487-0.66 0.487-1.093 0-0.168-0.028-0.33-0.080-0.481l0.003 0.010z"></path>
</symbol>
<symbol id="icon-time" viewBox="0 0 31 32">
<path fill="#fff" style="fill: var(--color2, #fff)" d="M10.393 6.165h-5.595c-0.010-0-0.022-0.001-0.034-0.001-0.518 0-0.938 0.42-0.938 0.938s0.42 0.938 0.938 0.938c0.012 0 0.024-0 0.036-0.001l-0.002 0h5.595c0.503-0.019 0.904-0.431 0.904-0.937s-0.401-0.918-0.902-0.937l-0.002-0zM10.393 9.915h-5.595c-0.518 0-0.938 0.42-0.938 0.938s0.42 0.938 0.938 0.938h5.595c0.518 0 0.938-0.42 0.938-0.938s-0.42-0.938-0.938-0.938v0zM10.393 13.665h-5.595c-0.518 0-0.938 0.42-0.938 0.938s0.42 0.938 0.938 0.938h5.595c0.518 0 0.938-0.42 0.938-0.938s-0.42-0.938-0.938-0.938v0zM10.393 17.415h-5.595c-0.010-0-0.022-0.001-0.034-0.001-0.518 0-0.938 0.42-0.938 0.938s0.42 0.938 0.938 0.938c0.012 0 0.024-0 0.036-0.001l-0.002 0h5.595c0.503-0.019 0.904-0.431 0.904-0.937s-0.401-0.918-0.902-0.937l-0.002-0zM10.393 21.228h-5.595c-0.503 0.019-0.904 0.431-0.904 0.937s0.401 0.918 0.902 0.937l0.002 0h5.595c0.503-0.019 0.904-0.431 0.904-0.937s-0.401-0.918-0.902-0.937l-0.002-0zM13.541 8.039h5.595c0.010 0 0.022 0.001 0.034 0.001 0.518 0 0.938-0.42 0.938-0.938s-0.42-0.938-0.938-0.938c-0.012 0-0.024 0-0.036 0.001l0.002-0h-5.595c-0.503 0.019-0.904 0.431-0.904 0.937s0.401 0.918 0.902 0.937l0.002 0zM13.541 11.791h5.595c0.518 0 0.938-0.42 0.938-0.938s-0.42-0.938-0.938-0.938h-5.595c-0.518 0-0.938 0.42-0.938 0.938s0.42 0.938 0.938 0.938v0zM17.173 14.603c0-0.001 0-0.002 0-0.002 0-0.517-0.419-0.935-0.935-0.935-0 0-0.001 0-0.001 0h-2.695c-0.518 0-0.938 0.42-0.938 0.938s0.42 0.938 0.938 0.938h2.695c0.517 0 0.937-0.42 0.937-0.938zM26.054 21.625c-0.159-0.128-0.364-0.206-0.586-0.206-0.294 0-0.557 0.136-0.729 0.348l-0.001 0.002-2.415 3.010-1.495-1.083c-0.158-0.124-0.359-0.199-0.578-0.199-0.518 0-0.938 0.42-0.938 0.938 0 0.323 0.163 0.608 0.412 0.777l0.003 0.002 2.218 1.607c0.152 0.112 0.344 0.179 0.55 0.179 0.295 0 0.558-0.136 0.729-0.35l0.001-0.002 2.974-3.707c0.128-0.159 0.205-0.363 0.205-0.586 0-0.295-0.136-0.558-0.349-0.73l-0.002-0.001z"></path>
<path fill="#fff" style="fill: var(--color2, #fff)" d="M28.425 18.746c-1.168-1.194-2.717-2.010-4.45-2.251l-0.041-0.005v-12.714c-0.002-2.085-1.691-3.774-3.776-3.776h-16.382c-2.085 0.002-3.774 1.691-3.776 3.776v21.717c0.002 2.085 1.691 3.774 3.776 3.776h13.176c1.425 1.675 3.534 2.731 5.89 2.731 0.011 0 0.022-0 0.033-0h-0.002c4.293 0 7.786-3.495 7.786-7.791 0-0.006 0-0.013 0-0.021 0-2.122-0.853-4.044-2.235-5.444l0.001 0.001zM1.874 25.493v-21.717c0-1.049 0.853-1.902 1.902-1.902h16.382c1.049 0 1.902 0.853 1.902 1.902v12.684c-3.936 0.434-6.97 3.741-6.97 7.756 0 1.15 0.249 2.242 0.696 3.226l-0.020-0.049h-11.989c-1.049-0.001-1.9-0.851-1.902-1.9v-0zM22.873 30.126c-0.006 0-0.013 0-0.020 0-1.918 0-3.621-0.92-4.691-2.343l-0.011-0.015c-0.74-0.977-1.185-2.214-1.185-3.554 0-3.27 2.65-5.92 5.92-5.92 0.028 0 0.056 0 0.084 0.001l-0.004-0h0.015c1.611 0.026 3.061 0.697 4.106 1.765l0.001 0.001c1.046 1.067 1.692 2.53 1.692 4.144 0 3.265-2.643 5.912-5.906 5.92h-0.001z"></path>
</symbol>
<symbol id="icon-twiter" viewBox="0 0 40 32">
<path fill="#21a6df" style="fill: var(--color6, #21a6df)" d="M39.2 3.944c-1.319 0.601-2.848 1.037-4.452 1.228l-0.074 0.007c1.63-0.998 2.854-2.526 3.442-4.339l0.016-0.056c-1.434 0.881-3.105 1.551-4.889 1.911l-0.099 0.017c-0.72-0.781-1.59-1.413-2.566-1.851l-0.050-0.020c-0.916-0.412-1.986-0.653-3.112-0.653-0.006 0-0.012 0-0.019 0h0.001c-4.357 0-7.861 3.584-7.861 7.981 0 0.618 0.074 1.235 0.194 1.829-6.573-0.361-12.341-3.526-16.174-8.308l-0.034-0.044c-0.672 1.147-1.069 2.526-1.069 3.998 0 0.011 0 0.022 0 0.033v-0.002c0 2.77 1.387 5.211 3.504 6.648-1.315-0.055-2.532-0.425-3.593-1.036l0.038 0.020v0.099c0 3.878 2.701 7.091 6.302 7.83-0.62 0.171-1.333 0.27-2.069 0.272h-0.001c-0.528-0.005-1.042-0.049-1.544-0.129l0.059 0.008c1.015 3.177 3.906 5.453 7.339 5.534l0.009 0c-2.644 2.124-6.041 3.41-9.738 3.41-0.008 0-0.016 0-0.024-0h0.001c-0.659 0-1.267-0.024-1.899-0.098 3.393 2.243 7.557 3.578 12.033 3.578 0.014 0 0.029 0 0.043-0h-0.002c14.456 0 22.368-12.154 22.368-22.702 0-0.346 0-0.691-0.024-1.038 1.531-1.136 2.872-2.544 3.941-4.126z"></path>
</symbol>
<symbol id="icon-youtub" viewBox="0 0 44 32">
<path fill="#e42f08" style="fill: var(--color7, #e42f08)" d="M42.613 5.212c-0.253-0.98-0.732-1.825-1.38-2.509l0.002 0.003c-0.634-0.67-1.439-1.172-2.345-1.438l-0.037-0.009c-3.319-0.944-16.652-0.944-16.652-0.944s-13.333 0-16.652 0.944c-0.943 0.276-1.748 0.778-2.38 1.446l-0.002 0.002c-0.661 0.693-1.136 1.557-1.378 2.505-0.573 3.133-0.901 6.738-0.901 10.42 0 0.129 0 0.258 0.001 0.387l-0-0.020c-0.001 0.112-0.001 0.245-0.001 0.377 0 3.678 0.327 7.28 0.954 10.779l-0.055-0.368c0.242 0.948 0.716 1.813 1.378 2.507 0.658 0.693 1.481 1.191 2.382 1.447 3.317 0.944 16.652 0.944 16.652 0.944s13.333 0 16.652-0.942c0.943-0.276 1.748-0.779 2.38-1.448l0.002-0.003c0.66-0.693 1.136-1.557 1.378-2.505 0.619-3.557 0.921-7.17 0.898-10.788 0.001-0.112 0.001-0.244 0.001-0.377 0-3.679-0.327-7.281-0.954-10.779l0.055 0.368zM17.938 22.724v-13.447l11.067 6.724-11.067 6.722z"></path>
</symbol>
</defs>
</svg>
